<?xml version="1.0" standalone="no"?>
<!DOCTYPE svg PUBLIC "-//W3C//DTD SVG 20010904//EN"
 "http://www.w3.org/TR/2001/REC-SVG-20010904/DTD/svg10.dtd">
<svg version="1.0" xmlns="http://www.w3.org/2000/svg"
 width="828.000000pt" height="828.000000pt" viewBox="0 0 828.000000 828.000000"
 preserveAspectRatio="xMidYMid meet">
<metadata>
Created by potrace 1.11, written by Peter Selinger 2001-2013
</metadata>
<g transform="translate(0.000000,828.000000) scale(0.100000,-0.100000)"
fill="#000000" stroke="none">
<path d="M3873 7456 c-29 -19 -48 -46 -61 -86 -9 -26 -3 -152 7 -164 11 -13
23 -65 34 -139 2 -13 7 -29 10 -34 4 -6 0 -27 -8 -46 l-15 -36 -72 3 c-43 1
-86 -3 -105 -11 -17 -7 -53 -15 -80 -18 -26 -2 -49 -9 -51 -15 -2 -5 -9 -10
-16 -10 -19 0 -76 -60 -77 -81 -3 -53 -2 -66 4 -91 13 -49 66 -90 117 -92 14
-1 66 8 119 20 27 6 71 -20 71 -41 0 -8 5 -15 10 -15 17 0 38 -59 33 -93 -8
-74 -7 -74 -153 -93 -146 -19 -158 -21 -220 -43 -39 -14 -60 -17 -73 -10 -23
13 -103 -24 -112 -52 -4 -10 -10 -19 -15 -19 -8 0 -24 -34 -25 -55 -1 -5 -6
-20 -13 -32 -18 -33 2 -68 49 -83 21 -7 39 -17 39 -21 0 -5 17 -11 38 -15 20
-3 59 -12 86 -18 33 -9 63 -10 95 -3 25 5 62 9 81 9 61 1 175 -14 188 -24 16
-14 16 -83 -1 -96 -7 -6 -53 -11 -105 -10 -51 0 -98 -4 -105 -9 -6 -6 -70 -15
-142 -22 -139 -13 -277 -37 -310 -54 -19 -10 -36 -14 -140 -37 -22 -4 -58 -15
-80 -24 -22 -8 -50 -15 -61 -16 -47 -1 -95 -30 -111 -68 -15 -34 -17 -47 -14
-86 1 -8 26 -38 57 -68 58 -55 86 -66 184 -73 246 -16 262 -16 275 -5 11 9 30
8 84 -5 42 -11 81 -15 98 -10 15 4 87 9 158 11 72 2 145 7 163 10 47 9 58 -6
60 -80 l2 -65 -43 -11 c-23 -6 -60 -16 -82 -22 -47 -13 -39 -11 -139 -32 -43
-9 -85 -23 -93 -31 -8 -8 -29 -15 -46 -15 -18 0 -45 -9 -62 -20 -16 -11 -39
-20 -50 -20 -22 0 -122 -30 -170 -51 -47 -20 -105 -86 -105 -119 0 -32 53 -93
91 -105 13 -4 40 -18 59 -30 19 -13 60 -26 90 -30 30 -3 59 -10 65 -15 11 -9
142 -18 327 -24 110 -4 121 -12 114 -80 -9 -93 -22 -115 -85 -143 -31 -13 -69
-32 -86 -41 -18 -9 -58 -17 -100 -18 -113 -4 -174 -13 -213 -33 -20 -10 -69
-22 -109 -26 -39 -4 -87 -9 -105 -11 -18 -3 -91 -7 -163 -9 -71 -3 -143 -8
-160 -11 -38 -9 -85 -47 -107 -88 -29 -55 -3 -145 57 -190 32 -25 44 -28 118
-28 45 0 91 -5 102 -12 13 -7 76 -11 172 -11 100 0 156 -4 163 -11 7 -7 26 -9
48 -5 20 3 123 6 228 6 222 0 244 -6 244 -63 0 -57 -22 -68 -157 -75 -139 -8
-197 -14 -239 -28 -17 -5 -73 -9 -125 -7 -121 2 -243 -23 -281 -58 -31 -31
-45 -98 -27 -137 7 -16 26 -31 46 -38 25 -8 39 -21 50 -46 l14 -35 87 8 c109
10 130 10 217 0 39 -4 105 -8 148 -9 42 0 77 -4 77 -9 0 -4 28 -8 63 -9 91 -1
109 -9 131 -54 19 -40 24 -124 10 -169 -8 -23 -41 -50 -64 -52 -9 -1 -25 -6
-37 -12 -11 -6 -58 -14 -104 -17 -85 -6 -157 -16 -241 -34 -58 -13 -164 -8
-243 10 -67 16 -294 16 -388 1 -33 -5 -81 -5 -110 -1 -29 5 -74 9 -102 10 -27
1 -60 6 -72 10 -27 10 -58 66 -46 82 12 16 10 108 -2 127 -5 8 -10 33 -11 55
-1 22 -3 41 -4 43 -1 1 -4 7 -5 12 -1 6 -3 11 -5 13 -7 9 -6 37 1 37 6 0 7 5
3 11 -7 12 -12 45 -18 124 -2 28 -11 67 -19 87 -9 20 -13 45 -11 55 6 21 -26
98 -53 128 -34 39 -123 56 -150 30 -8 -8 -20 -15 -27 -15 -6 0 -18 -10 -26
-21 -8 -12 -20 -27 -25 -33 -6 -6 -11 -24 -12 -41 0 -16 -3 -43 -6 -58 -3 -15
0 -45 7 -65 11 -32 15 -169 5 -197 -2 -5 2 -20 9 -32 7 -13 10 -23 6 -23 -3 0
-1 -7 6 -15 7 -8 9 -15 4 -15 -4 0 -3 -5 3 -11 7 -7 8 -21 3 -40 -5 -16 -9
-33 -9 -37 -1 -4 -7 -14 -14 -22 -7 -8 -15 -19 -17 -25 -3 -5 -30 -11 -60 -11
-187 -5 -275 -42 -306 -128 -15 -42 2 -113 33 -144 33 -33 142 -62 208 -56
130 11 136 10 171 -30 22 -25 32 -48 32 -67 -1 -16 -4 -29 -7 -30 -27 -3 -45
-10 -65 -23 -13 -8 -42 -17 -65 -20 -23 -3 -47 -8 -53 -13 -11 -6 -93 -13
-145 -13 -7 0 -19 0 -25 0 -20 0 -93 -8 -93 -10 0 -3 -41 -10 -86 -13 -19 -2
-40 -7 -46 -10 -7 -4 -14 -3 -18 3 -4 6 -12 7 -18 3 -7 -4 -23 -8 -37 -10
-101 -9 -189 -29 -208 -46 -10 -10 -23 -17 -29 -17 -19 0 -53 -47 -53 -73 0
-35 40 -99 81 -128 30 -21 42 -23 148 -22 64 1 131 4 149 6 17 3 32 0 32 -5 0
-5 7 -5 18 0 17 10 134 7 187 -4 17 -3 51 -7 76 -8 25 -2 50 -6 57 -9 6 -4 13
-4 15 0 5 8 98 8 132 0 11 -3 23 -6 26 -6 15 -2 17 -45 3 -67 -19 -28 -50 -35
-156 -36 -47 0 -92 -6 -103 -13 -11 -7 -46 -14 -78 -17 -33 -3 -62 -9 -65 -14
-4 -5 -11 -10 -17 -10 -5 -1 -32 -4 -58 -7 -27 -4 -63 -15 -80 -26 -18 -11
-36 -20 -42 -21 -36 -7 -78 -74 -72 -115 2 -14 11 -35 20 -45 9 -11 17 -25 17
-31 0 -6 6 -16 13 -23 17 -17 80 -51 90 -48 4 1 7 -3 7 -8 0 -6 5 -10 10 -10
6 0 22 -7 35 -16 14 -9 45 -18 70 -19 24 -1 50 -7 58 -13 7 -6 51 -14 98 -17
46 -3 98 -6 115 -8 30 -2 64 -22 64 -37 0 -4 -9 -17 -19 -29 -17 -19 -30 -22
-101 -23 -58 0 -95 -6 -124 -19 -22 -10 -52 -19 -66 -19 -14 0 -37 -6 -51 -14
-18 -9 -74 -15 -170 -17 -214 -5 -240 -4 -282 3 -41 6 -42 6 -92 -58 -42 -54
-34 -104 24 -144 11 -8 21 -20 21 -28 0 -20 63 -42 122 -42 29 0 89 6 134 14
52 9 94 12 118 6 40 -9 70 -4 103 18 15 9 45 13 90 11 37 -1 77 2 87 6 34 15
236 12 245 -3 4 -7 7 -54 6 -104 -3 -115 -17 -127 -140 -120 -50 2 -154 -66
-155 -101 0 -10 -5 -27 -10 -38 -7 -12 -7 -19 -1 -19 5 0 13 -10 17 -22 14
-47 88 -97 129 -88 6 1 22 3 38 3 15 1 27 5 27 8 0 9 66 2 87 -9 18 -11 26
-41 14 -57 -6 -9 -7 -30 -1 -37 8 -11 6 -46 -4 -76 -7 -21 -11 -46 -9 -57 2
-11 5 -63 6 -116 4 -126 21 -150 107 -155 67 -3 105 24 140 101 16 34 18 57
13 145 -7 137 -7 130 1 165 4 17 9 39 10 50 2 11 4 23 5 26 1 9 39 20 76 23
17 1 37 5 45 9 8 4 37 9 63 11 38 3 55 10 82 36 49 47 62 91 39 129 -11 19
-29 33 -48 37 -17 4 -37 15 -44 25 -19 27 -75 34 -116 15 -37 -17 -65 -20 -82
-8 -18 13 -44 80 -38 97 4 9 7 47 8 83 l1 67 55 -4 c30 -2 62 -7 71 -11 8 -5
22 -5 29 0 26 16 142 1 163 -21 10 -11 22 -17 27 -14 4 3 10 -2 14 -10 3 -8
12 -15 19 -15 15 0 77 -55 77 -68 0 -4 21 -8 47 -9 25 -1 49 -6 52 -10 36 -49
216 -46 269 4 7 7 19 13 27 13 7 0 21 12 31 27 9 16 28 37 40 48 48 42 51 105
7 150 -32 31 -58 35 -143 20 -25 -4 -49 -7 -55 -6 -5 0 -26 2 -46 4 -37 4 -99
27 -99 37 0 3 -9 6 -21 7 -21 2 -48 29 -49 49 0 5 19 19 43 29 34 16 69 20
192 22 83 2 155 3 160 3 6 -1 35 -2 65 -4 60 -3 80 1 80 16 0 12 41 47 55 48
6 0 26 10 45 22 39 25 37 25 139 32 67 6 77 4 98 -16 13 -12 23 -17 24 -12 1
11 27 -57 28 -73 1 -8 -11 -13 -29 -13 -17 0 -45 -10 -61 -22 -75 -55 -73
-124 5 -202 82 -82 86 -93 81 -235 -3 -68 -8 -128 -11 -133 -18 -28 -24 -260
-10 -341 10 -60 10 -81 0 -110 -7 -21 -9 -37 -4 -37 15 0 39 -67 39 -103 -1
-18 3 -43 8 -57 6 -14 9 -35 8 -47 -1 -18 33 -67 39 -55 0 2 9 0 19 -4 10 -4
23 -2 30 5 6 6 18 11 27 11 9 0 26 11 38 25 12 14 26 25 30 25 5 0 19 21 31
48 12 26 33 67 45 92 36 70 39 96 17 113 -45 31 -47 96 -4 229 12 38 13 56 3
102 -8 37 -8 61 -1 74 7 13 6 27 -5 47 -8 16 -14 38 -13 50 1 11 -2 36 -8 55
-6 22 -7 57 -1 95 5 33 9 73 9 89 1 30 32 65 57 66 39 1 83 88 56 111 -7 6
-12 15 -9 19 8 13 -26 50 -65 70 l-38 20 0 69 c0 78 5 89 39 97 35 8 149 25
185 28 17 1 36 6 42 10 7 4 16 5 21 2 9 -6 110 28 122 41 17 18 59 107 59 125
0 11 4 28 10 38 8 15 4 22 -23 37 -25 15 -47 19 -102 17 -87 -4 -95 -5 -95
-16 0 -4 -11 -8 -24 -8 -14 0 -28 -5 -31 -10 -4 -6 -11 -7 -17 -4 -6 4 -14 1
-18 -6 -4 -7 -27 -14 -51 -16 -24 -3 -53 -6 -64 -8 -28 -5 -45 12 -45 43 -1
20 18 44 80 101 78 72 82 78 86 125 5 61 17 70 112 81 41 5 122 49 122 66 0 4
11 8 24 8 13 0 29 6 35 14 6 8 31 17 55 20 23 4 54 9 69 11 22 5 75 -26 97
-57 5 -6 74 -39 93 -44 4 -1 8 -2 10 -4 1 -1 9 -3 17 -5 71 -19 88 -21 105
-18 11 2 25 4 30 4 45 -1 140 0 185 1 56 2 183 -8 233 -17 15 -3 40 1 57 10
22 11 48 14 102 10 68 -5 133 -13 168 -20 8 -2 20 -4 25 -4 19 -2 43 -56 39
-91 -1 -19 -5 -63 -8 -98 -5 -67 -33 -114 -71 -120 -11 -2 -33 -10 -50 -19
-16 -8 -59 -17 -95 -19 -62 -4 -109 -10 -120 -15 -3 -1 -18 -3 -35 -4 -16 -2
-36 -3 -42 -4 -18 -2 -44 -44 -49 -83 -11 -74 -10 -88 10 -111 18 -20 60 -49
76 -52 96 -19 189 -25 205 -14 14 9 87 8 108 -3 20 -10 23 -51 4 -66 -7 -6
-39 -14 -70 -18 -32 -4 -60 -11 -63 -15 -3 -5 -16 -9 -29 -9 -13 0 -26 -4 -29
-9 -3 -4 -33 -11 -66 -15 -44 -5 -63 -12 -70 -26 -5 -10 -19 -22 -31 -25 -53
-17 -87 -70 -94 -143 -5 -61 20 -105 72 -127 45 -19 181 -18 286 1 37 7 74 11
82 7 18 -6 19 -41 4 -80 -6 -15 -11 -41 -11 -58 1 -16 -3 -34 -8 -40 -10 -12
-10 -126 1 -140 4 -5 9 -29 10 -51 2 -33 -3 -49 -23 -76 -14 -19 -31 -53 -37
-75 -12 -42 -3 -81 33 -148 9 -16 16 -43 16 -58 0 -76 117 -105 222 -55 36 17
50 31 59 56 6 17 14 32 19 32 4 0 11 12 14 26 4 14 15 45 25 68 32 70 32 73 0
107 l-30 33 2 165 c1 91 4 186 6 209 6 48 0 47 101 26 39 -8 105 9 187 48 50
24 63 35 78 69 11 25 15 49 10 62 -4 12 -6 25 -5 30 1 4 -2 7 -6 7 -5 0 -17 8
-28 19 -27 25 -64 44 -72 37 -3 -4 -16 3 -28 15 -19 18 -21 26 -13 41 11 20
27 21 101 4 14 -3 39 -1 55 5 15 6 29 10 31 10 1 -1 15 5 30 13 16 8 35 11 47
6 17 -6 110 -6 110 0 0 1 17 3 39 5 29 2 45 11 68 36 63 74 78 147 42 219 -28
58 -50 76 -99 84 -22 3 -53 8 -70 10 -16 3 -42 7 -57 9 -15 2 -39 12 -52 21
-14 9 -37 17 -51 18 -18 2 -28 10 -32 26 -7 28 13 102 27 102 12 0 13 50 2 65
-9 12 -23 16 -85 22 -27 2 -58 7 -70 12 -12 4 -26 7 -32 6 -21 -2 -92 -29
-138 -52 -52 -26 -92 -23 -100 7 -3 10 -1 40 4 65 5 26 6 51 3 56 -10 16 6 46
29 55 20 8 56 10 147 5 19 -1 58 1 85 4 28 4 70 7 95 8 25 1 50 5 55 8 13 9
153 4 184 -6 39 -12 114 -13 141 -2 14 6 36 11 50 12 31 2 110 -35 110 -51 0
-7 12 -22 27 -34 23 -18 35 -20 92 -15 93 8 91 7 91 18 0 6 3 8 6 4 10 -10
107 33 122 54 7 10 20 19 28 19 8 0 14 8 14 18 0 10 3 22 7 26 21 21 6 63 -41
109 -24 25 -39 29 -105 34 -71 6 -163 7 -256 2 -22 -2 -50 1 -61 5 -12 3 -44
9 -70 12 -27 3 -58 6 -69 8 -11 1 -24 0 -30 -3 -18 -9 -202 -14 -242 -7 -13 3
-23 2 -23 -2 0 -10 -231 -8 -252 2 -12 5 -18 4 -18 -3 0 -9 -27 -9 -50 -1 -3
1 -11 3 -19 4 -8 0 -16 10 -18 21 -11 58 -10 85 3 96 8 6 14 18 14 25 0 8 11
14 28 15 84 4 138 13 154 27 7 5 27 13 43 16 34 6 73 15 95 23 8 3 31 7 50 9
19 1 45 6 58 9 12 3 31 7 43 10 12 2 26 8 33 13 6 5 32 7 59 5 35 -2 52 2 65
15 25 24 78 53 107 58 13 2 44 13 69 24 25 10 61 22 79 25 41 8 137 93 137
121 0 50 -41 98 -92 111 -21 5 -218 10 -635 15 -90 2 -163 5 -163 9 0 3 -7 6
-15 7 -8 1 -22 3 -30 4 -8 1 -15 5 -15 10 0 4 -7 8 -15 8 -16 0 -19 18 -7 37
13 21 59 32 154 38 88 6 138 16 183 35 46 19 90 30 125 30 21 0 56 7 79 15 23
8 44 14 47 14 14 -2 75 30 133 68 35 24 69 43 76 43 19 0 74 66 81 98 3 15 7
33 9 39 3 7 -6 24 -19 38 -21 23 -29 25 -67 19 -24 -4 -48 -10 -54 -14 -5 -4
-26 -10 -46 -14 -42 -7 -61 8 -49 39 9 26 -7 95 -28 118 -15 16 -87 59 -102
60 -3 1 -16 6 -29 13 -14 7 -28 11 -33 8 -4 -3 -13 -2 -20 2 -6 4 -45 9 -85
10 -41 1 -79 6 -86 11 -7 5 -21 8 -32 6 -81 -11 -113 -10 -145 5 -37 18 -40
19 -68 21 -34 2 -54 26 -56 67 -2 46 12 64 50 63 46 -1 114 10 136 22 11 6 58
12 104 14 74 3 92 7 142 36 31 19 77 41 101 51 46 18 78 49 107 103 9 16 23
35 30 43 14 13 18 26 15 49 -1 6 3 14 9 18 13 8 -1 35 -38 73 -24 25 -229 134
-259 138 -7 1 -19 9 -28 17 -23 23 -52 30 -93 21 -63 -13 -105 -10 -159 8 -29
10 -65 18 -81 18 -38 0 -51 29 -47 105 4 73 25 197 35 208 3 4 -4 29 -16 55
-32 67 -52 129 -59 181 -3 23 -8 47 -11 53 -3 5 -8 24 -11 41 -3 18 -9 37 -13
42 -4 6 -11 40 -15 78 -4 37 -11 67 -16 67 -5 0 -9 9 -9 20 0 11 -9 37 -20 57
-15 28 -31 41 -67 55 -43 16 -51 16 -79 3 -16 -8 -35 -24 -42 -37 -16 -31 -23
-217 -9 -243 11 -21 18 -73 16 -115 -3 -60 14 -356 24 -432 6 -40 -13 -51 -56
-33 -32 13 -63 20 -204 42 -31 5 -264 -30 -307 -46 -11 -5 -49 -8 -83 -9 -34
0 -68 -4 -74 -8 -7 -4 -44 -9 -83 -11 -84 -4 -113 -7 -226 -23 -81 -12 -160
-16 -425 -20 -119 -2 -232 14 -248 35 -24 31 25 163 61 164 21 0 52 6 112 22
25 7 59 13 75 14 17 2 30 4 30 5 0 2 69 8 170 14 33 2 60 5 60 6 0 5 87 12
190 15 61 1 111 4 113 5 1 1 14 4 30 6 110 13 143 20 184 40 58 30 79 59 88
126 10 70 0 129 -28 158 -18 18 -69 43 -112 55 -14 4 -57 23 -96 41 -45 22
-86 34 -112 34 -32 0 -44 5 -53 21 -13 24 3 46 37 53 10 2 30 9 44 14 14 5 28
10 33 11 4 0 20 7 35 14 15 8 45 13 67 13 22 -1 52 4 66 11 42 21 109 99 109
127 0 32 -20 76 -34 76 -15 1 -66 47 -66 60 0 5 -3 10 -7 11 -5 0 -17 3 -28 5
-38 9 -80 15 -105 15 -94 -1 -124 0 -134 6 -12 8 -17 9 -81 19 -34 6 -124 8
-175 4 -15 -1 -105 7 -150 14 -49 7 -109 29 -114 42 -9 24 9 30 134 39 81 6
157 34 200 74 14 13 40 35 59 50 65 49 101 88 101 109 0 49 -40 92 -86 92 -8
0 -39 11 -68 25 -28 13 -61 26 -73 28 -12 1 -27 8 -35 14 -7 6 -31 18 -53 28
-22 10 -47 24 -55 31 -8 7 -30 15 -49 17 -18 3 -38 10 -44 16 -6 6 -20 11 -30
11 -11 0 -39 12 -63 28 -54 34 -68 71 -60 155 7 72 16 178 15 192 -5 148 -8
174 -24 205 -33 64 -78 89 -160 88 -11 0 -34 -10 -52 -22z m392 -883 c26 -19
33 -49 13 -51 -114 -14 -116 -14 -127 6 -8 16 -6 25 9 45 23 29 65 29 105 0z
m5 -526 c14 -2 35 0 48 5 15 5 33 3 51 -7 16 -8 32 -10 37 -5 12 12 84 -11 84
-27 0 -23 -26 -28 -160 -30 -74 -2 -157 -7 -185 -11 -62 -9 -85 -5 -86 16 0 9
-2 26 -4 36 -2 11 -1 24 2 29 4 8 147 4 213 -6z m-522 -317 c-3 -24 -7 -25
-68 -27 -36 -2 -85 -7 -110 -12 -25 -5 -63 -8 -85 -6 -22 1 -48 3 -57 4 -21 1
-24 27 -5 33 6 3 39 6 72 7 33 2 64 6 70 9 12 8 92 17 148 17 35 0 38 -2 35
-25z m834 -174 c4 -6 13 -5 22 3 13 11 19 11 31 1 26 -21 17 -38 -19 -38 -19
0 -39 -3 -44 -6 -5 -3 -27 -8 -48 -11 -22 -4 -48 -9 -59 -12 -11 -4 -42 -7
-70 -7 -27 -1 -60 -7 -72 -14 -12 -6 -32 -12 -46 -12 -13 0 -27 -3 -31 -7 -4
-4 -26 -9 -49 -11 -23 -1 -71 -5 -106 -8 l-64 -6 7 32 c3 18 6 38 6 44 0 26
46 40 135 43 97 2 163 8 169 14 9 9 231 4 238 -5z m-834 -445 c8 -1 10 -10 6
-28 -12 -52 -20 -54 -125 -51 -54 2 -102 7 -106 12 -15 15 15 41 55 48 23 4
49 11 57 16 9 4 35 7 58 6 23 -2 48 -3 55 -3z m1363 -220 c11 -13 19 -32 19
-42 0 -10 4 -19 9 -19 5 0 13 -9 16 -20 4 -11 10 -18 15 -15 4 3 25 -3 46 -12
58 -25 55 -25 247 -7 186 18 194 17 202 -26 2 -12 11 -41 19 -64 19 -53 16
-106 -8 -130 -14 -14 -36 -20 -85 -22 -36 -1 -66 -3 -66 -4 0 -1 -13 -3 -30
-4 -43 -3 -83 -15 -135 -38 -25 -12 -67 -22 -95 -24 -27 -2 -52 -4 -55 -5 -7
-3 -71 -9 -155 -13 -67 -4 -103 -16 -185 -61 -44 -24 -41 -23 -182 -29 -64 -2
-122 -7 -127 -11 -26 -16 -118 -25 -249 -24 -34 0 -81 -5 -103 -11 -23 -6 -81
-13 -130 -14 -88 -3 -90 -3 -103 23 -7 14 -11 51 -10 81 2 42 8 59 24 72 12
10 28 18 34 18 7 0 47 18 88 40 41 22 78 37 82 33 3 -3 6 -1 6 5 0 7 9 12 20
12 11 0 20 4 20 8 0 4 15 14 34 20 19 7 37 20 40 28 3 8 10 13 15 10 5 -3 12
10 16 30 12 68 -45 98 -174 91 -66 -4 -90 -10 -135 -36 -47 -26 -56 -29 -64
-15 -13 24 -2 73 20 85 11 6 46 13 77 15 89 6 223 16 266 19 22 2 72 6 110 10
39 3 106 8 150 11 115 6 141 10 230 34 54 15 159 27 219 25 38 0 52 -6 67 -24z
m1054 -117 c39 -9 88 -17 111 -18 60 -3 116 -32 112 -59 -3 -19 -10 -22 -48
-23 -78 -2 -86 -4 -110 -24 -13 -11 -27 -21 -32 -21 -13 -2 -21 -5 -53 -18
-16 -7 -48 -15 -70 -17 -58 -6 -82 17 -83 83 -1 29 -3 55 -4 60 -1 4 3 18 10
31 16 27 64 29 167 6z m-2439 -417 c3 -2 6 -17 7 -33 2 -29 1 -29 -53 -31 -30
0 -81 -3 -112 -6 -51 -5 -58 -3 -64 15 -9 30 26 52 96 60 36 4 121 1 126 -5z
m1994 -23 c30 -30 -46 -60 -98 -38 -36 15 -40 31 -15 49 21 16 93 9 113 -11z
m-1310 -200 c0 -23 -30 -43 -78 -50 -26 -4 -58 -11 -72 -16 -14 -5 -26 -9 -27
-9 -2 0 -17 -5 -35 -10 -18 -6 -60 -13 -93 -15 -73 -5 -107 9 -101 42 8 40 16
45 69 44 79 -1 219 10 252 19 45 12 85 9 85 -5z m1005 -9 c17 -4 75 -8 130
-10 55 -1 123 -5 150 -9 129 -15 130 -16 129 -172 -1 -156 -7 -178 -51 -205
-37 -23 -48 -26 -158 -34 -38 -3 -85 -8 -102 -11 -18 -3 -34 -4 -35 -3 -2 1
-13 -3 -26 -10 -12 -7 -55 -14 -95 -16 -40 -3 -83 -7 -97 -10 -46 -10 -115
-19 -147 -20 -18 0 -33 -3 -33 -7 0 -9 -121 -2 -175 10 -22 5 -54 16 -72 25
-18 9 -39 17 -47 17 -8 0 -16 4 -18 9 -1 6 -25 12 -53 16 -27 3 -57 13 -67 22
-10 9 -18 13 -18 9 0 -4 -10 0 -22 8 -12 9 -32 16 -45 16 -12 0 -25 5 -28 10
-3 6 -15 10 -25 10 -10 0 -25 6 -32 13 -7 6 -20 14 -28 15 -30 7 -76 13 -107
13 -21 1 -33 6 -33 14 0 18 10 24 56 31 22 3 44 10 49 14 6 4 19 10 30 12 11
1 23 6 26 11 3 4 32 9 66 11 33 1 65 6 72 10 7 5 26 10 44 13 17 3 52 13 79
24 26 10 48 17 48 14 0 -3 17 1 38 9 20 8 44 15 52 15 26 1 95 10 95 12 0 1
19 3 42 4 40 3 153 64 153 83 0 9 38 30 75 43 22 8 131 4 180 -6z m720 -85 c8
-6 19 -9 25 -5 32 20 249 -5 295 -33 5 -4 21 -8 35 -10 47 -5 78 -23 82 -47 3
-13 2 -29 -2 -35 -8 -12 -110 -53 -110 -44 0 4 -6 2 -12 -4 -7 -6 -33 -13 -58
-17 -25 -3 -98 -19 -162 -35 -64 -17 -137 -30 -161 -30 -42 0 -46 2 -51 28
-12 63 8 209 32 232 18 18 66 18 87 0z m-2057 -449 c23 -5 45 -5 47 0 6 9 298
3 329 -8 11 -4 31 -6 44 -4 12 1 22 -2 22 -8 0 -21 2 -26 12 -39 13 -15 8 -21
-23 -28 -13 -3 -28 -6 -34 -7 -25 -6 -75 -33 -75 -40 0 -5 -4 -6 -9 -2 -5 3
-12 1 -16 -5 -3 -5 -16 -10 -28 -10 -69 0 -147 -9 -163 -18 -10 -5 -41 -9 -69
-8 -27 1 -55 -1 -60 -5 -13 -10 -35 3 -39 22 -2 8 -8 28 -15 44 -20 48 -19 75
3 101 12 13 23 24 26 23 3 0 24 -4 48 -8z m1168 -238 c29 -19 110 -21 142 -4
12 6 44 9 79 5 32 -3 81 -7 108 -8 28 -2 67 -10 87 -19 20 -8 39 -13 41 -10 7
7 87 -45 87 -57 0 -5 -5 -30 -12 -54 -10 -40 -16 -46 -62 -65 -28 -11 -71 -23
-96 -26 -25 -3 -64 -13 -87 -21 -23 -9 -48 -14 -56 -11 -7 3 -19 -3 -25 -14
-7 -10 -22 -18 -35 -18 -12 1 -35 -4 -52 -11 -16 -7 -49 -14 -72 -16 -35 -4
-44 -1 -53 16 -6 11 -8 25 -5 30 4 6 1 26 -5 45 -8 26 -22 39 -58 56 -50 25
-84 28 -152 15 -25 -5 -63 -10 -85 -11 -42 -2 -93 -13 -110 -24 -5 -4 -32 -6
-60 -5 -114 4 -332 4 -512 0 -182 -4 -192 -4 -184 13 15 28 39 44 69 45 15 1
32 4 37 7 6 3 30 5 55 4 25 -1 51 3 58 8 8 6 26 12 40 13 15 1 47 7 72 13 25
6 59 11 76 11 17 0 46 7 64 16 18 9 62 18 97 19 36 1 68 6 71 12 4 5 27 19 52
31 36 17 57 20 105 16 33 -3 67 -6 75 -6 35 0 144 12 148 17 13 13 134 4 158
-12z m906 -74 c10 0 20 -4 23 -9 3 -5 12 -7 20 -3 9 3 15 -1 15 -8 -1 -44 -65
-77 -148 -75 -69 1 -82 11 -74 54 8 45 18 50 85 45 34 -2 70 -4 79 -4z m-3684
-231 c13 -11 14 -11 8 1 -6 9 -4 12 5 9 8 -2 15 -19 17 -38 3 -32 3 -33 -30
-25 -18 4 -52 6 -75 6 -46 -2 -58 9 -49 45 6 23 10 24 58 19 28 -3 58 -11 66
-17z m138 -129 c3 -5 15 -9 27 -9 12 0 36 -7 52 -16 35 -19 149 -30 267 -27
46 1 83 2 83 3 0 6 167 5 171 -1 3 -5 10 -6 17 -4 7 2 38 6 70 9 32 2 64 10
72 16 7 6 28 9 46 6 17 -2 43 0 57 5 24 9 64 15 167 24 58 5 94 -17 91 -56 -1
-17 -7 -34 -12 -37 -6 -4 -13 -14 -16 -23 -4 -10 -23 -19 -50 -22 -103 -15
-127 -19 -190 -39 -75 -23 -103 -47 -112 -98 -18 -91 4 -160 52 -160 15 0 40
-7 56 -15 15 -8 35 -15 42 -15 22 0 17 -19 -12 -44 -51 -46 -64 -56 -72 -56
-5 0 -18 -11 -30 -25 -12 -14 -26 -25 -32 -25 -5 0 -10 -7 -10 -16 0 -8 -4
-13 -9 -10 -5 3 -14 -8 -21 -24 -20 -49 -86 -67 -164 -45 -19 5 -54 2 -100 -9
-39 -9 -92 -17 -118 -18 -27 -2 -48 -6 -48 -10 0 -3 -44 -7 -97 -7 -54 0 -150
-1 -213 -1 -151 -1 -281 5 -302 15 -10 4 -18 15 -18 24 0 23 28 61 46 61 8 0
14 4 14 9 0 14 99 44 160 48 30 2 143 5 251 6 146 2 200 5 212 15 20 17 70
102 64 108 -3 3 -1 20 3 39 7 29 4 38 -27 70 -38 40 -68 54 -131 62 -32 3 -49
0 -62 -12 -9 -8 -27 -17 -38 -20 -11 -2 -31 -9 -43 -15 -12 -7 -55 -13 -95
-14 -70 -1 -74 0 -83 24 -18 52 -62 80 -146 94 -16 3 -31 10 -33 16 -2 5 -8 8
-13 4 -25 -15 -2 64 26 93 21 21 80 53 97 53 35 0 69 24 75 51 3 16 13 30 22
32 21 4 50 -3 57 -14z m1578 3 c-1 -7 -2 -18 -2 -26 -1 -8 -10 -13 -19 -11
-10 1 -27 -3 -39 -10 -32 -20 -131 -18 -140 3 -23 53 -8 62 104 58 67 -2 97
-6 96 -14z m1584 -4 c6 -8 7 -19 3 -27 -5 -7 -6 -21 -4 -31 8 -30 -39 -54 -90
-46 -23 4 -88 9 -145 11 -57 3 -108 7 -113 10 -28 18 17 52 82 61 24 4 55 12
68 19 35 18 185 20 199 3z"/>
</g>
</svg>
